HIERARCHY
ROOT Pelvis
{
	OFFSET 0.000000 0.941512 0.000000
	CHANNELS 6 Xposition Yposition Zposition Zrotation Yrotation Xrotation 
	JOINT Pelvis_L_Hip
	{
		OFFSET 0.000000 0.000000 0.000000
		CHANNELS 3 Zrotation Yrotation Xrotation
		JOINT L_Hip
		{
			OFFSET 0.062321 -0.080322 -0.016990
			CHANNELS 3 Zrotation Yrotation Xrotation
			JOINT L_Knee
			{
				OFFSET 0.093051 -0.381305 -0.029784
				CHANNELS 3 Zrotation Yrotation Xrotation
				JOINT L_Ankle
				{
					OFFSET -0.010371 -0.431000 -0.033614
					CHANNELS 3 Zrotation Yrotation Xrotation
					End Site #name: L_Foot
					{
						OFFSET 0.069299 -0.038670 0.119418
					}
				}
			}
		}
	}
	JOINT Pelvis_R_Hip
	{
		OFFSET 0.000000 0.000000 0.000000
		CHANNELS 3 Zrotation Yrotation Xrotation
		JOINT R_Hip
		{
			OFFSET -0.055334 -0.094904 -0.002373
			CHANNELS 3 Zrotation Yrotation Xrotation
			JOINT R_Knee
			{
				OFFSET -0.064207 -0.384370 -0.019592
				CHANNELS 3 Zrotation Yrotation Xrotation
				JOINT R_Ankle
				{
					OFFSET 0.025418 -0.419734 -0.065953
					CHANNELS 3 Zrotation Yrotation Xrotation
					End Site #name: R_Foot
					{
						OFFSET -0.057233 -0.039888 0.132134
					}
				}
			}
		}
	}
	JOINT Pelvis_Spine1
	{
		OFFSET 0.000000 0.000000 0.000000
		CHANNELS 3 Zrotation Yrotation Xrotation
		JOINT Spine1
		{
			OFFSET -0.005562 0.124093 -0.043360
			CHANNELS 3 Zrotation Yrotation Xrotation
			JOINT Spine2
			{
				OFFSET 0.012244 0.139499 0.029894
				CHANNELS 3 Zrotation Yrotation Xrotation
				JOINT Spine3
				{
					OFFSET -0.002556 0.056561 0.009225
					CHANNELS 3 Zrotation Yrotation Xrotation
					JOINT Spine3_Neck
					{
						OFFSET 0.000000 0.000000 0.000000
						CHANNELS 3 Zrotation Yrotation Xrotation
						JOINT Neck
						{
							OFFSET -0.005205 0.217920 -0.024551
							CHANNELS 3 Zrotation Yrotation Xrotation
							End Site #name: Head
							{
								OFFSET 0.002365 0.091850 0.046637
							}
						}
					}
					JOINT Spine3_L_Collar
					{
						OFFSET 0.000000 0.000000 0.000000
						CHANNELS 3 Zrotation Yrotation Xrotation
						JOINT L_Collar
						{
							OFFSET 0.072225 0.116603 -0.009480
							CHANNELS 3 Zrotation Yrotation Xrotation
							JOINT L_Shoulder
							{
								OFFSET 0.115937 -0.058643 -0.021018
								CHANNELS 3 Zrotation Yrotation Xrotation
								JOINT L_Elbow
								{
									OFFSET 0.021994 -0.254722 -0.024492
									CHANNELS 3 Zrotation Yrotation Xrotation
									End Site #name: L_Wrist
									{
										OFFSET 0.048810 -0.240214 0.103329
									}
								}
							}
						}
					}
					JOINT Spine3_R_Collar
					{
						OFFSET 0.000000 0.000000 0.000000
						CHANNELS 3 Zrotation Yrotation Xrotation
						JOINT R_Collar
						{
							OFFSET -0.073372 0.120704 -0.024611
							CHANNELS 3 Zrotation Yrotation Xrotation
							JOINT R_Shoulder
							{
								OFFSET -0.108089 -0.054969 -0.020504
								CHANNELS 3 Zrotation Yrotation Xrotation
								JOINT R_Elbow
								{
									OFFSET -0.033684 -0.260739 0.009889
									CHANNELS 3 Zrotation Yrotation Xrotation
									End Site #name: R_Wrist
									{
										OFFSET -0.067980 -0.232763 0.118463
									}
								}
							}
						}
					}
				}
			}
		}
	}
}
MOTION
Frames: 7
Frame Time: 0.041667
0.000000 0.955522 0.000000 -4.004986 -3.078842 8.648552 0.000000 0.000000 0.000000 -3.584377 -2.582861 -10.688515 7.906047 -1.172186 5.802116 -5.000635 -13.472417 1.416426 0.000000 0.000000 0.000000 6.107201 1.568186 -8.896876 -3.125231 0.292471 -2.136671 6.687059 14.557959 4.425399 0.000000 0.000000 0.000000 5.812233 0.860045 -15.792959 -7.378715 3.770089 20.957204 2.206722 2.273455 -27.172116 0.000000 0.000000 0.000000 1.210602 -1.569832 25.253056 0.000000 0.000000 0.000000 27.235039 1.208724 6.628269 -23.761571 2.540711 3.984449 1.227295 2.460892 10.427178 0.000000 0.000000 0.000000 -25.707567 -0.314059 6.031454 27.291230 -1.730538 10.454213 2.169832 -1.499019 8.451357 
-0.000022 0.955507 0.000053 -4.028445 -3.110216 8.642635 0.000000 0.000000 0.000000 -3.565283 -2.582232 -10.686367 7.911890 -1.175731 5.832302 -5.001047 -13.464098 1.421481 0.000000 0.000000 0.000000 6.124142 1.567091 -8.890969 -3.119214 0.291192 -2.140749 6.717090 14.570774 4.469837 0.000000 0.000000 0.000000 5.789877 0.867847 -15.834147 -7.390610 3.781635 21.002857 2.236316 2.292025 -27.084967 0.000000 0.000000 0.000000 1.186202 -1.549816 25.255820 0.000000 0.000000 0.000000 27.165094 1.246871 6.638472 -23.726189 2.567153 4.069524 1.148489 2.400427 10.230405 0.000000 0.000000 0.000000 -25.611287 -0.355118 6.039009 27.175511 -1.765028 10.536606 2.257806 -1.302732 7.917488 
-0.000009 0.955458 -0.000054 -4.069994 -3.149741 8.604931 0.000000 0.000000 0.000000 -3.531268 -2.576024 -10.662484 7.924927 -1.181458 5.874793 -4.985898 -13.443553 1.408192 0.000000 0.000000 0.000000 6.167938 1.563527 -8.871117 -3.124259 0.293383 -2.122310 6.744960 14.596641 4.503104 0.000000 0.000000 0.000000 5.739455 0.880996 -15.893042 -7.291188 3.769645 21.174422 2.226940 2.285417 -27.017131 0.000000 0.000000 0.000000 1.163674 -1.530625 25.278007 0.000000 0.000000 0.000000 27.050448 1.262100 6.613900 -23.623201 2.615925 4.251674 0.983952 2.237979 9.625431 0.000000 0.000000 0.000000 -25.533926 -0.367302 6.030738 27.045454 -1.862299 10.786034 2.391350 -0.827927 6.535468 
-0.000050 0.955462 -0.000178 -4.058297 -3.152259 8.646206 0.000000 0.000000 0.000000 -3.533612 -2.589949 -10.715773 7.937045 -1.182133 5.865056 -5.033402 -13.446660 1.480368 0.000000 0.000000 0.000000 6.166919 1.580825 -8.949444 -3.151494 0.300554 -2.083523 6.778951 14.563340 4.580476 0.000000 0.000000 0.000000 5.706512 0.883639 -15.895086 -7.392583 3.792704 21.068902 2.243700 2.279556 -26.972109 0.000000 0.000000 0.000000 1.195295 -1.556718 25.372331 0.000000 0.000000 0.000000 27.215201 1.242091 6.641331 -23.583915 2.669257 4.433904 0.720901 1.996130 8.783267 0.000000 0.000000 0.000000 -25.613597 -0.517053 6.181303 27.102196 -1.962857 11.038276 2.538949 -0.249834 4.874186 
-0.000015 0.955553 -0.000573 -4.075600 -3.167770 8.666932 0.000000 0.000000 0.000000 -3.490471 -2.596707 -10.742880 7.918407 -1.176985 5.835496 -5.086990 -13.478981 1.548457 0.000000 0.000000 0.000000 6.186678 1.590461 -8.991877 -3.161457 0.299569 -2.109140 6.819091 14.559712 4.652077 0.000000 0.000000 0.000000 5.651386 0.895602 -15.947241 -7.381099 3.789324 21.072369 2.267311 2.270330 -26.933233 0.000000 0.000000 0.000000 1.188723 -1.553428 25.496268 0.000000 0.000000 0.000000 27.332663 1.243786 6.671614 -23.645136 2.728865 4.604558 0.667400 1.757928 7.605964 0.000000 0.000000 0.000000 -25.787852 -0.529939 6.249008 27.181664 -2.031350 11.206390 2.655078 0.309225 3.265412 
0.000120 0.955638 -0.001046 -4.108968 -3.191426 8.624690 0.000000 0.000000 0.000000 -3.442985 -2.587957 -10.709999 7.902869 -1.173381 5.817729 -5.116838 -13.510732 1.580405 0.000000 0.000000 0.000000 6.221369 1.595055 -9.007836 -3.169996 0.305571 -2.054226 6.840105 14.556037 4.689925 0.000000 0.000000 0.000000 5.608846 0.905062 -15.985305 -7.342540 3.787242 21.156134 2.327358 2.311559 -26.882695 0.000000 0.000000 0.000000 1.125775 -1.512742 25.649157 0.000000 0.000000 0.000000 27.359543 1.272443 6.705608 -23.588296 2.727229 4.610956 0.624596 1.519059 6.421757 0.000000 0.000000 0.000000 -25.963778 -0.386429 6.180040 27.190521 -2.062596 11.281474 2.601964 0.687339 1.996923 
0.000110 0.955670 -0.001856 -4.108060 -3.148352 8.627874 0.000000 0.000000 0.000000 -3.360099 -2.611887 -10.802294 7.825167 -1.167675 5.866725 -5.202774 -13.623992 1.660121 0.000000 0.000000 0.000000 6.230257 1.614197 -9.090990 -3.171517 0.310491 -2.002842 6.820550 14.486579 4.695023 0.000000 0.000000 0.000000 5.598179 0.904317 -15.972564 -7.387069 3.803390 21.165762 2.356781 2.361419 -26.839835 0.000000 0.000000 0.000000 1.021042 -1.443011 25.678785 0.000000 0.000000 0.000000 27.429566 1.189923 6.667517 -23.472952 2.649952 4.389498 0.638166 1.367870 5.599620 0.000000 0.000000 0.000000 -26.101211 -0.239942 6.085945 27.127539 -2.089117 11.349943 2.628227 1.036567 0.951364 
